<?xml version="1.0" encoding="UTF-8"?>
<svg id="Layer_1" data-name="Layer 1" xmlns="http://www.w3.org/2000/svg" viewBox="0 0 8.82 8.78">
  <defs>
    <style>
      .cls-1 {
        fill: #16b7b9;
      }
    </style>
  </defs>
  <rect class="cls-1" x="1.91" y="3.03" width=".44" height=".44" transform="translate(-1.6 2.15) rotate(-40.31)"/>
  <rect class="cls-1" x="3.7" y="6.04" width=".44" height=".44" transform="translate(-3.19 4.25) rotate(-42.18)"/>
  <polygon class="cls-1" points="6.45 2.37 6.88 2.4 6.86 2.83 6.42 2.81 6.45 2.37"/>
  <path class="cls-1" d="M7.04,.8H1.77c-.52,0-.95,.43-.95,.96V7.02c0,.53,.43,.96,.95,.96H7.04c.53,0,.95-.43,.95-.96V1.76c0-.53-.42-.96-.95-.96Zm.21,1.62l-.03,.44-.02,.36-.37-.02-.43-.03-.37-.02,.02-.33h-.73l-.56,1.06,.44,1.41-.73,.73,.02,.02,.24,.27-.27,.25-.33,.28-.27,.24-.25-.27-.28-.33-.24-.27,.27-.24,.33-.29,.27-.24,.22,.25,.52-.52-.32-1.03-1.28,.4-.73-.73-.02,.02-.28,.24-.24-.27-.29-.33-.24-.27,.28-.24,.32-.29,.28-.24,.24,.27,.29,.33,.24,.27-.25,.22,.52,.52,1.15-.36,.68-1.3h1.03v-.03l.03-.37,.36,.03,.44,.02,.36,.03-.02,.36Z"/>
</svg>